# xmcd
#
# Track frame offsets:
#	150
#	13242
#	25245
#	34575
#	46180
#	59232
#	72225
#	81957
#	97232
#	113992
#	127465
#	149717
#	159462
#	172265
#	186897
#	200215
#	225112
#	240480
#
# Disc length: 3515 seconds
# Revision: 1
# Processed by: cddbd v1.5.2PL0 Copyright (c) Steve Scherf et al.
# Submitted via: dBpowerAMP V12.0
#
DISCID=120db912
DTITLE=Various Artist - Blues Breakers
DYEAR=1998
DGENRE=Blues
TTITLE0=Muddy Waters - Mannish Boy
TTITLE1=John Lee Hooker - I'm In The Mood
TTITLE2=Canned Heat - Big Road Blues
TTITLE3=Little Walter - My Babe
TTITLE4=John Mayall - A Big Man
TTITLE5=Elmore James - Dust My Broom
TTITLE6=Eric Clapton - Tribute To Elmore
TTITLE7=Sonny Boy Williamson - Cross My Heart
TTITLE8=Johnny Winter - Kind Hearted Woman
TTITLE9=Lightnin' Hopkins - Mojo Hand
TTITLE10=Howlin' Wolf - Wang Dang Doodle
TTITLE11=John Lee Hooker - Dusty Road
TTITLE12=Muddy Waters - 40 Days And 40 Nights
TTITLE13=Mississippi John Hurt - Candy Man
TTITLE14=Tony Joe White - You Got Me Running
TTITLE15=Ike and Tina Turner - All I Can Do Is Cry
TTITLE16=Big Joe Williams - Nobody Knows You When Your Down And Out
TTITLE17=B.B. King - How Blue Can You Get
EXTD=
EXTT0=
EXTT1=
EXTT2=
EXTT3=
EXTT4=
EXTT5=
EXTT6=
EXTT7=
EXTT8=
EXTT9=
EXTT10=
EXTT11=
EXTT12=
EXTT13=
EXTT14=
EXTT15=
EXTT16=
EXTT17=
PLAYORDER=
